<?xml version="1.0" encoding="utf-8"  standalone="no"?>
<!DOCTYPE svg PUBLIC "-//W3C//DTD SVG 1.1//EN" 
 "http://www.w3.org/Graphics/SVG/1.1/DTD/svg11.dtd">
<svg width="230" height="253" viewBox="0 0 230 253"
    xmlns="http://www.w3.org/2000/svg" version="1.1"
    xmlns:xlink="http://www.w3.org/1999/xlink" id="s1">
  <title>Diagram of voltage divider netwrok</title>
  <desc>Manually edited</desc>
  <!-- cmo
  <rect x="0" y="0" height="480" width="260" stroke="none" fill="#CFA"/>
<svg width="460" height="506" viewBox="0 0 230 253"
  -->
  <defs id="d1">
    <path id="rstr" stroke-linejoin="bevel"
      d="M0,0 l0,4 l-8,4.5 l16,9 l-16,9 l16,9 l-16,9 l16,9 l-8,4.5 l0,5" />
    <path id="rstr2" stroke-linejoin="bevel"
      d="M0,0 v4 h-8 v54 h16 v-54 h-8 m0,54 v4" />
  </defs>
  <g id="g1" fill="none" stroke="#000" stroke-width="3.0" stroke-linecap="butt">
    <path d="M 55,20 h40 v25 m0,60 v25 h70 m-70,0 v25 m0,60 v25" />
    <path stroke-width="6.0" d="M77,240 h36" />
    <use xlink:href="#rstr2" transform="translate(95,43)" />
    <use xlink:href="#rstr2" transform="translate(95,153)" />
  </g>
  <g fill="#FFF" stroke="#000" stroke-width="1.8" >
    <circle cx="50" cy="20" r="5" />
    <circle cx="160" cy="130" r="5" />
  </g>
  <g fill="#000" font-family="Helvetica" stroke="#000" > 
    <g style="stroke-width:0.4; font-size:24pt; font-style:italic" text-anchor="end" >
      <text x="30" y="28">V</text>
      <text x="188" y="137">V</text>
      <text x="132" y="85">R</text>
      <text x="132" y="195">R</text>
    </g>
    <g style="stroke-width:0.25; font-size:14pt" text-anchor="left" >
      <text x="27" y="34">in</text>
      <text x="185" y="143">out</text>
      <text x="131" y="91">1</text>
      <text x="131" y="201">2</text>
    </g>
  </g>
<!-- vim:nowrap:sw=2:so=2:et:ai -->
</svg>
